# xmcd
#
# Track frame offsets:
#	150
#	12102
#	23180
#	36542
#	50297
#
# Disc length: 858 seconds
# Revision: 0
# Processed by: cddbd v1.5.2PL0 Copyright (c) Steve Scherf et al.
# Submitted via: dBpowerAMP V12.0
#
DISCID=36035805
DTITLE=Marcia Armfield - Killabakh Creek
DYEAR=1900
DGENRE=Country
TTITLE0=Verse Valley
TTITLE1=Country Jamboree
TTITLE2=I'm Not That Kind of a Girl
TTITLE3=Keep It Country
TTITLE4=Killabakh Creek
EXTD=
EXTT0=
EXTT1=
EXTT2=
EXTT3=
EXTT4=
PLAYORDER=
